<?xml version="1.0" encoding="UTF-8" standalone="no"?>
<svg
   xmlns:dc="http://purl.org/dc/elements/1.1/"
   xmlns:cc="http://creativecommons.org/ns#"
   xmlns:rdf="http://www.w3.org/1999/02/22-rdf-syntax-ns#"
   xmlns:svg="http://www.w3.org/2000/svg"
   xmlns="http://www.w3.org/2000/svg"
   xmlns:sodipodi="http://sodipodi.sourceforge.net/DTD/sodipodi-0.dtd"
   xmlns:inkscape="http://www.inkscape.org/namespaces/inkscape"
   id="a14aeead-7a51-49c7-9dde-c662f5733ecb"
   data-name="Layer 1"
   width="782.04441"
   height="701.88002"
   viewBox="0 0 782.04441 701.88002"
   version="1.1"
   sodipodi:docname="blank.svg"
   inkscape:version="1.0.1 (3bc2e813f5, 2020-09-07)">
  <metadata
     id="metadata154">
    <rdf:RDF>
      <cc:Work
         rdf:about="">
        <dc:format>image/svg+xml</dc:format>
        <dc:type
           rdf:resource="http://purl.org/dc/dcmitype/StillImage" />
      </cc:Work>
    </rdf:RDF>
  </metadata>
  <defs
     id="defs152" />
  <sodipodi:namedview
     pagecolor="#ffffff"
     bordercolor="#666666"
     borderopacity="1"
     objecttolerance="10"
     gridtolerance="10"
     guidetolerance="10"
     inkscape:pageopacity="0"
     inkscape:pageshadow="2"
     inkscape:window-width="1366"
     inkscape:window-height="646"
     id="namedview150"
     showgrid="false"
     inkscape:zoom="0.64825895"
     inkscape:cx="521.77002"
     inkscape:cy="305.51221"
     inkscape:window-x="0"
     inkscape:window-y="27"
     inkscape:window-maximized="1"
     inkscape:current-layer="a14aeead-7a51-49c7-9dde-c662f5733ecb"
     inkscape:document-rotation="0" />
  <circle
     cx="383.00397"
     cy="343.80215"
     r="87.850388"
     fill="#6c63ff"
     id="circle127" />
  <path
     d="m 425.01935,332.3434 h -30.55666 v -30.55666 c 0,-6.3285 -5.13026,-11.45875 -11.45875,-11.45875 -6.32849,0 -11.45875,5.13025 -11.45875,11.45875 v 30.55666 h -30.55666 c -6.3285,0 -11.45875,5.13026 -11.45875,11.45875 0,6.32849 5.13025,11.45875 11.45875,11.45875 h 30.55666 v 30.55663 c 0,6.3285 5.13026,11.45875 11.45875,11.45875 6.32849,0 11.45875,-5.13025 11.45875,-11.45875 V 355.2609 h 30.55666 c 6.3285,0 11.45875,-5.13026 11.45875,-11.45875 0,-6.32849 -5.13025,-11.45875 -11.45875,-11.45875 z"
     fill="#ffffff"
     id="path129"
     sodipodi:nodetypes="scssscssscssscsss" />
</svg>
